<svg width="83" height="24" viewBox="0 0 83 24" fill="none" xmlns="http://www.w3.org/2000/svg">
<g id="Group 48095633">
<g id="Feeds by">
<path id="Vector" d="M45.0968 10.9882C44.918 10.9882 44.7716 10.9394 44.6578 10.8419C44.544 10.7524 44.4749 10.6305 44.4505 10.476C44.4342 10.3215 44.4627 10.1589 44.5358 9.98818L45.3651 8.14666V8.78083L43.1456 3.64651C43.0724 3.46764 43.048 3.30097 43.0724 3.14649C43.0968 2.99201 43.1699 2.87006 43.2919 2.78062C43.422 2.68306 43.5968 2.63428 43.8163 2.63428C44.0033 2.63428 44.1537 2.67899 44.2675 2.76843C44.3814 2.84973 44.483 3.00827 44.5724 3.24405L46.2188 7.35395H45.853L47.5359 3.23186C47.6254 3.00421 47.7311 2.84973 47.853 2.76843C47.975 2.67899 48.1376 2.63428 48.3408 2.63428C48.5197 2.63428 48.662 2.68306 48.7677 2.78062C48.8734 2.87006 48.9384 2.99201 48.9628 3.14649C48.9872 3.29284 48.9588 3.45544 48.8775 3.63431L45.9139 10.4028C45.8082 10.6305 45.6944 10.785 45.5725 10.8663C45.4505 10.9476 45.292 10.9882 45.0968 10.9882Z" fill="#077BD8"/>
<path id="Vector_2" d="M39.83 8.81737C39.3259 8.81737 38.8828 8.69135 38.5006 8.43931C38.1266 8.18727 37.8787 7.84986 37.7567 7.42708L37.8909 7.12219V8.01247C37.8909 8.26451 37.8258 8.45964 37.6957 8.59785C37.5656 8.72794 37.3827 8.79298 37.1469 8.79298C36.903 8.79298 36.716 8.72794 36.5859 8.59785C36.4559 8.45964 36.3908 8.26451 36.3908 8.01247V0.768319C36.3908 0.516278 36.4559 0.325214 36.5859 0.195129C36.716 0.065043 36.903 0 37.1469 0C37.3908 0 37.5778 0.065043 37.7079 0.195129C37.8461 0.325214 37.9153 0.516278 37.9153 0.768319V3.93916H37.7689C37.899 3.54077 38.151 3.21962 38.525 2.97571C38.899 2.7318 39.334 2.60985 39.83 2.60985C40.3584 2.60985 40.8178 2.73587 41.208 2.98791C41.5983 3.23995 41.9032 3.59768 42.1227 4.06111C42.3422 4.51641 42.452 5.06521 42.452 5.70751C42.452 6.34168 42.3422 6.89454 42.1227 7.3661C41.9032 7.82954 41.5942 8.18727 41.1959 8.43931C40.8056 8.69135 40.3503 8.81737 39.83 8.81737ZM39.4031 7.6588C39.7039 7.6588 39.9682 7.58562 40.1958 7.43928C40.4235 7.29293 40.5983 7.07748 40.7202 6.79291C40.8503 6.50022 40.9154 6.13842 40.9154 5.70751C40.9154 5.05708 40.7771 4.57333 40.5007 4.25624C40.2243 3.93103 39.8584 3.76842 39.4031 3.76842C39.1023 3.76842 38.838 3.84159 38.6104 3.98794C38.3827 4.12616 38.2039 4.34161 38.0738 4.6343C37.9518 4.91887 37.8909 5.2766 37.8909 5.70751C37.8909 6.34981 38.0291 6.83763 38.3055 7.17098C38.5819 7.49619 38.9478 7.6588 39.4031 7.6588Z" fill="#077BD8"/>
<path id="Vector_3" d="M29.3083 8.81727C28.9587 8.81727 28.5888 8.78068 28.1985 8.70751C27.8083 8.63434 27.4587 8.50832 27.1497 8.32945C27.0196 8.24814 26.9261 8.15465 26.8692 8.04895C26.8204 7.93513 26.8001 7.82537 26.8082 7.71967C26.8245 7.60585 26.8651 7.50828 26.9302 7.42698C27.0034 7.34567 27.0928 7.29283 27.1985 7.26844C27.3123 7.24405 27.4343 7.26437 27.5644 7.32941C27.8896 7.48389 28.1945 7.59365 28.479 7.65869C28.7636 7.71561 29.0441 7.74406 29.3205 7.74406C29.7108 7.74406 29.9994 7.67902 30.1864 7.54893C30.3815 7.41072 30.4791 7.23185 30.4791 7.01233C30.4791 6.82533 30.414 6.68305 30.284 6.58549C30.162 6.47979 29.975 6.40255 29.723 6.35377L28.5034 6.12206C27.9993 6.02449 27.6131 5.84156 27.3448 5.57326C27.0847 5.29682 26.9546 4.94315 26.9546 4.51224C26.9546 4.12199 27.0603 3.78458 27.2717 3.50002C27.4912 3.21545 27.792 2.99593 28.1741 2.84146C28.5563 2.68698 28.9953 2.60974 29.4912 2.60974C29.849 2.60974 30.1823 2.65039 30.4913 2.7317C30.8084 2.80487 31.1133 2.92276 31.4059 3.08537C31.5279 3.15041 31.6092 3.23578 31.6499 3.34147C31.6986 3.44717 31.7108 3.55693 31.6864 3.67075C31.6621 3.77645 31.6133 3.87401 31.5401 3.96345C31.4669 4.04475 31.3734 4.0976 31.2596 4.12199C31.1539 4.13825 31.032 4.11386 30.8937 4.04881C30.6417 3.91873 30.3978 3.82523 30.162 3.76832C29.9344 3.7114 29.7148 3.68295 29.5034 3.68295C29.1051 3.68295 28.8083 3.75206 28.6132 3.89027C28.4262 4.02849 28.3327 4.21142 28.3327 4.43907C28.3327 4.60981 28.3896 4.75209 28.5034 4.86592C28.6172 4.97974 28.792 5.05698 29.0278 5.09763L30.2474 5.32935C30.7758 5.42691 31.1742 5.60578 31.4425 5.86595C31.719 6.12612 31.8572 6.47573 31.8572 6.91477C31.8572 7.50828 31.6255 7.97578 31.162 8.31725C30.6986 8.6506 30.0807 8.81727 29.3083 8.81727Z" fill="#077BD8"/>
<path id="Vector_4" d="M22.104 8.81737C21.5837 8.81737 21.1243 8.69135 20.7259 8.43931C20.3357 8.18727 20.0308 7.82954 19.8113 7.3661C19.5918 6.89454 19.482 6.34168 19.482 5.70751C19.482 5.06521 19.5918 4.51641 19.8113 4.06111C20.0308 3.59768 20.3357 3.23995 20.7259 2.98791C21.1243 2.73587 21.5837 2.60985 22.104 2.60985C22.6 2.60985 23.0309 2.7318 23.3968 2.97571C23.7708 3.21962 24.0228 3.54077 24.1529 3.93916H24.0187V0.768319C24.0187 0.516278 24.0838 0.325214 24.2139 0.195129C24.344 0.065043 24.5309 0 24.7749 0C25.0188 0 25.2058 0.065043 25.3359 0.195129C25.4741 0.325214 25.5432 0.516278 25.5432 0.768319V8.01247C25.5432 8.26451 25.4781 8.45964 25.348 8.59785C25.218 8.72794 25.031 8.79298 24.7871 8.79298C24.5431 8.79298 24.3561 8.72794 24.2261 8.59785C24.096 8.45964 24.0309 8.26451 24.0309 8.01247V7.06122L24.1651 7.42708C24.0431 7.84986 23.7952 8.18727 23.4212 8.43931C23.0472 8.69135 22.6081 8.81737 22.104 8.81737ZM22.5309 7.6588C22.8317 7.6588 23.0959 7.58562 23.3236 7.43928C23.5512 7.29293 23.726 7.07748 23.848 6.79291C23.9781 6.50022 24.0431 6.13842 24.0431 5.70751C24.0431 5.05708 23.9049 4.57333 23.6285 4.25624C23.352 3.93103 22.9862 3.76842 22.5309 3.76842C22.2301 3.76842 21.9658 3.84159 21.7382 3.98794C21.5105 4.12616 21.3317 4.34161 21.2016 4.6343C21.0796 4.91887 21.0186 5.2766 21.0186 5.70751C21.0186 6.34981 21.1568 6.83763 21.4333 7.17098C21.7097 7.49619 22.0756 7.6588 22.5309 7.6588Z" fill="#077BD8"/>
<path id="Vector_5" d="M16.1405 8.81727C15.4657 8.81727 14.8844 8.69125 14.3966 8.43921C13.9088 8.18717 13.5307 7.82943 13.2624 7.366C13.0022 6.90257 12.8721 6.35377 12.8721 5.7196C12.8721 5.1017 12.9982 4.56103 13.2502 4.0976C13.5104 3.63417 13.864 3.27237 14.3112 3.01219C14.7665 2.74389 15.2828 2.60974 15.86 2.60974C16.2828 2.60974 16.6609 2.67885 16.9942 2.81707C17.3357 2.95528 17.6243 3.15447 17.8601 3.41465C18.104 3.67482 18.2869 3.9919 18.4089 4.3659C18.539 4.73176 18.604 5.14641 18.604 5.60984C18.604 5.75619 18.5512 5.87001 18.4455 5.95132C18.3479 6.02449 18.2056 6.06108 18.0186 6.06108H14.1039V5.183H17.5308L17.3357 5.36593C17.3357 4.99194 17.2788 4.67892 17.165 4.42688C17.0593 4.17484 16.9007 3.98377 16.6893 3.85369C16.4861 3.71547 16.23 3.64636 15.921 3.64636C15.5795 3.64636 15.2868 3.72766 15.0429 3.89027C14.8072 4.04475 14.6242 4.26833 14.4941 4.56103C14.3722 4.84559 14.3112 5.18706 14.3112 5.58545V5.67082C14.3112 6.33751 14.4657 6.83753 14.7746 7.17087C15.0917 7.49609 15.5552 7.65869 16.1649 7.65869C16.3763 7.65869 16.6121 7.6343 16.8723 7.58552C17.1406 7.52861 17.3926 7.43511 17.6284 7.30502C17.7991 7.20746 17.9495 7.16681 18.0796 7.18307C18.2097 7.1912 18.3113 7.23591 18.3845 7.31722C18.4658 7.39852 18.5146 7.50015 18.5309 7.62211C18.5471 7.73593 18.5227 7.85382 18.4577 7.97578C18.4008 8.09773 18.2991 8.20343 18.1528 8.29286C17.8682 8.47173 17.539 8.60588 17.165 8.69531C16.7991 8.77662 16.4576 8.81727 16.1405 8.81727Z" fill="#077BD8"/>
<path id="Vector_6" d="M9.53064 8.81727C8.85582 8.81727 8.2745 8.69125 7.78668 8.43921C7.29886 8.18717 6.9208 7.82943 6.65249 7.366C6.39232 6.90257 6.26224 6.35377 6.26224 5.7196C6.26224 5.1017 6.38826 4.56103 6.6403 4.0976C6.90047 3.63417 7.25414 3.27237 7.70131 3.01219C8.15661 2.74389 8.67289 2.60974 9.25014 2.60974C9.67292 2.60974 10.051 2.67885 10.3843 2.81707C10.7258 2.95528 11.0144 3.15447 11.2502 3.41465C11.4941 3.67482 11.6771 3.9919 11.799 4.3659C11.9291 4.73176 11.9941 5.14641 11.9941 5.60984C11.9941 5.75619 11.9413 5.87001 11.8356 5.95132C11.738 6.02449 11.5958 6.06108 11.4088 6.06108H7.49399V5.183H10.9209L10.7258 5.36593C10.7258 4.99194 10.6689 4.67892 10.5551 4.42688C10.4494 4.17484 10.2908 3.98377 10.0794 3.85369C9.87618 3.71547 9.62008 3.64636 9.31112 3.64636C8.96965 3.64636 8.67695 3.72766 8.43304 3.89027C8.19726 4.04475 8.01433 4.26833 7.88424 4.56103C7.76229 4.84559 7.70131 5.18706 7.70131 5.58545V5.67082C7.70131 6.33751 7.85579 6.83753 8.16474 7.17087C8.48183 7.49609 8.94526 7.65869 9.55503 7.65869C9.76642 7.65869 10.0022 7.6343 10.2624 7.58552C10.5307 7.52861 10.7827 7.43511 11.0185 7.30502C11.1892 7.20746 11.3396 7.16681 11.4697 7.18307C11.5998 7.1912 11.7014 7.23591 11.7746 7.31722C11.8559 7.39852 11.9047 7.50015 11.921 7.62211C11.9372 7.73593 11.9128 7.85382 11.8478 7.97578C11.7909 8.09773 11.6893 8.20343 11.5429 8.29286C11.2583 8.47173 10.9291 8.60588 10.5551 8.69531C10.1892 8.77662 9.84773 8.81727 9.53064 8.81727Z" fill="#077BD8"/>
<path id="Vector_7" d="M0.909825 8.79295C0.657784 8.79295 0.45859 8.72384 0.312244 8.58563C0.174027 8.43928 0.104919 8.23196 0.104919 7.96366V0.926831C0.104919 0.658529 0.174027 0.45527 0.312244 0.317054C0.45859 0.170707 0.665914 0.0975342 0.934216 0.0975342H5.19046C5.40185 0.0975342 5.56039 0.150382 5.66608 0.256076C5.77178 0.361771 5.82463 0.512183 5.82463 0.707311C5.82463 0.91057 5.77178 1.06911 5.66608 1.18294C5.56039 1.28863 5.40185 1.34148 5.19046 1.34148H1.66595V3.76839H4.93435C5.13761 3.76839 5.29209 3.82124 5.39778 3.92693C5.51161 4.03263 5.56852 4.18304 5.56852 4.37817C5.56852 4.58143 5.51161 4.73997 5.39778 4.85379C5.29209 4.95949 5.13761 5.01234 4.93435 5.01234H1.66595V7.96366C1.66595 8.51652 1.41391 8.79295 0.909825 8.79295Z" fill="#077BD8"/>
</g>
<g id="ShareInfo">
<path id="Vector_8" d="M77.8253 23.8087C76.8618 23.8087 76.0203 23.6196 75.3008 23.2416C74.5934 22.8635 74.0446 22.3208 73.6544 21.6135C73.2641 20.9061 73.069 20.0707 73.069 19.1073C73.069 18.3878 73.1788 17.7414 73.3983 17.1682C73.6178 16.595 73.9349 16.1072 74.3495 15.7047C74.7764 15.2901 75.2825 14.9791 75.8679 14.7718C76.4533 14.5523 77.1057 14.4425 77.8253 14.4425C78.7887 14.4425 79.6241 14.6315 80.3314 15.0096C81.051 15.3877 81.6059 15.9243 81.9961 16.6194C82.3986 17.3146 82.5998 18.1439 82.5998 19.1073C82.5998 19.839 82.484 20.4915 82.2522 21.0647C82.0327 21.6379 81.7156 22.1318 81.301 22.5464C80.8863 22.9611 80.3802 23.2782 79.7826 23.4977C79.1973 23.705 78.5448 23.8087 77.8253 23.8087ZM77.8253 21.7415C78.2277 21.7415 78.5753 21.644 78.868 21.4488C79.1607 21.2537 79.3924 20.9671 79.5631 20.5891C79.7339 20.1988 79.8192 19.7049 79.8192 19.1073C79.8192 18.217 79.6363 17.5646 79.2704 17.1499C78.9046 16.7231 78.4228 16.5096 77.8253 16.5096C77.435 16.5096 77.0874 16.6011 76.7825 16.784C76.4898 16.967 76.2581 17.2536 76.0874 17.6438C75.9289 18.0219 75.8496 18.5097 75.8496 19.1073C75.8496 19.9976 76.0325 20.6622 76.3984 21.1013C76.7642 21.5281 77.2399 21.7415 77.8253 21.7415Z" fill="#EE5602"/>
<path id="Vector_9" d="M68.8221 23.772C68.3708 23.772 68.0233 23.6501 67.7793 23.4062C67.5476 23.1623 67.4318 22.8147 67.4318 22.3635V16.6925H66.7732C66.4317 16.6925 66.1634 16.6011 65.9683 16.4181C65.7854 16.2352 65.6939 15.9852 65.6939 15.6681C65.6939 15.3266 65.7854 15.0705 65.9683 14.8998C66.1634 14.7169 66.4317 14.6254 66.7732 14.6254H68.2367L67.4318 15.3571V14.79C67.4318 13.4851 67.7549 12.5095 68.4013 11.8631C69.0599 11.2167 70.0233 10.8265 71.2917 10.6923L71.877 10.6374C72.1941 10.6131 72.4441 10.6618 72.6271 10.7838C72.8222 10.9057 72.9503 11.0643 73.0112 11.2594C73.0722 11.4545 73.0844 11.6558 73.0478 11.8631C73.0112 12.0582 72.9259 12.2351 72.7917 12.3936C72.6698 12.5399 72.499 12.6192 72.2795 12.6314L72.0234 12.6497C71.3648 12.6985 70.8953 12.857 70.6148 13.1253C70.3343 13.3814 70.1941 13.7778 70.1941 14.3144V14.9364L69.8465 14.6254H71.4929C71.8466 14.6254 72.1149 14.7169 72.2978 14.8998C72.4807 15.0705 72.5722 15.3266 72.5722 15.6681C72.5722 15.9852 72.4807 16.2352 72.2978 16.4181C72.1149 16.6011 71.8466 16.6925 71.4929 16.6925H70.1941V22.3635C70.1941 23.3025 69.7367 23.772 68.8221 23.772Z" fill="#EE5602"/>
<path id="Vector_10" d="M57.2468 23.7721C56.7956 23.7721 56.448 23.6501 56.2041 23.4062C55.9724 23.1623 55.8565 22.8147 55.8565 22.3635V15.8694C55.8565 15.4181 55.9724 15.0767 56.2041 14.845C56.448 14.601 56.7834 14.4791 57.2102 14.4791C57.6493 14.4791 57.9846 14.601 58.2163 14.845C58.4481 15.0767 58.5639 15.4181 58.5639 15.8694V16.9121L58.3627 16.3084C58.6432 15.7108 59.0578 15.2535 59.6066 14.9364C60.1676 14.6071 60.8018 14.4425 61.5091 14.4425C62.2287 14.4425 62.8202 14.5828 63.2836 14.8633C63.747 15.1316 64.0946 15.5462 64.3263 16.1072C64.558 16.656 64.6739 17.3572 64.6739 18.2109V22.3635C64.6739 22.8147 64.5519 23.1623 64.308 23.4062C64.0763 23.6501 63.7348 23.7721 63.2836 23.7721C62.8446 23.7721 62.5031 23.6501 62.2592 23.4062C62.0274 23.1623 61.9116 22.8147 61.9116 22.3635V18.339C61.9116 17.717 61.7957 17.2719 61.564 17.0036C61.3445 16.7231 61.003 16.5828 60.5396 16.5828C59.9542 16.5828 59.4847 16.7658 59.131 17.1316C58.7895 17.4975 58.6188 17.9853 58.6188 18.5951V22.3635C58.6188 23.3026 58.1615 23.7721 57.2468 23.7721Z" fill="#EE5602"/>
<path id="Vector_11" d="M52.0908 23.7718C51.6273 23.7718 51.2737 23.6438 51.0297 23.3877C50.7858 23.1316 50.6639 22.7718 50.6639 22.3084V12.0092C50.6639 11.5458 50.7858 11.186 51.0297 10.9299C51.2737 10.6738 51.6273 10.5458 52.0908 10.5458C52.542 10.5458 52.8896 10.6738 53.1335 10.9299C53.3774 11.186 53.4993 11.5458 53.4993 12.0092V22.3084C53.4993 22.7718 53.3774 23.1316 53.1335 23.3877C52.9018 23.6438 52.5542 23.7718 52.0908 23.7718Z" fill="#EE5602"/>
<path id="Vector_12" d="M45.052 23.8087C43.9909 23.8087 43.0763 23.6196 42.308 23.2416C41.5518 22.8513 40.9664 22.3086 40.5518 21.6135C40.1493 20.9061 39.9481 20.0768 39.9481 19.1256C39.9481 18.1987 40.1432 17.3877 40.5335 16.6926C40.9238 15.9852 41.4665 15.4364 42.1616 15.0462C42.869 14.6437 43.6678 14.4425 44.558 14.4425C45.2044 14.4425 45.7898 14.5523 46.3142 14.7718C46.8386 14.9791 47.2898 15.284 47.6679 15.6865C48.046 16.0767 48.3325 16.5584 48.5277 17.1316C48.7228 17.6926 48.8204 18.3207 48.8204 19.0158C48.8204 19.2475 48.7472 19.4244 48.6009 19.5463C48.4545 19.6561 48.2411 19.711 47.9606 19.711H42.2165V18.2841H46.8264L46.5337 18.5402C46.5337 18.0402 46.4605 17.6255 46.3142 17.2963C46.1678 16.9548 45.9544 16.6987 45.6739 16.5279C45.4056 16.3572 45.0702 16.2718 44.6678 16.2718C44.2166 16.2718 43.8324 16.3755 43.5153 16.5828C43.1982 16.7901 42.9543 17.0889 42.7836 17.4792C42.6128 17.8695 42.5275 18.339 42.5275 18.8878V19.0341C42.5275 19.961 42.7409 20.6439 43.1677 21.083C43.6068 21.522 44.2531 21.7415 45.1068 21.7415C45.3995 21.7415 45.7349 21.7049 46.113 21.6318C46.491 21.5586 46.8447 21.4427 47.174 21.2842C47.4545 21.1501 47.7045 21.1074 47.924 21.1561C48.1435 21.1927 48.3143 21.2903 48.4362 21.4488C48.5582 21.6074 48.6252 21.7903 48.6374 21.9976C48.6618 22.205 48.6191 22.4123 48.5094 22.6196C48.3996 22.8147 48.2167 22.9794 47.9606 23.1135C47.5459 23.3452 47.0764 23.516 46.552 23.6257C46.0398 23.7477 45.5398 23.8087 45.052 23.8087Z" fill="#EE5602"/>
<path id="Vector_13" d="M34.4346 23.7719C33.9712 23.7719 33.6175 23.6499 33.3736 23.406C33.1297 23.1621 33.0078 22.8145 33.0078 22.3633V15.8692C33.0078 15.4179 33.1236 15.0765 33.3553 14.8447C33.5992 14.6008 33.9346 14.4789 34.3615 14.4789C34.8005 14.4789 35.1359 14.6008 35.3676 14.8447C35.5993 15.0765 35.7152 15.4179 35.7152 15.8692V16.8204H35.5322C35.6786 16.0887 36.0018 15.5216 36.5018 15.1191C37.0018 14.7167 37.6482 14.4911 38.4409 14.4423C38.7458 14.4179 38.9775 14.4972 39.136 14.6801C39.3067 14.8508 39.3982 15.1374 39.4104 15.5399C39.4348 15.918 39.3555 16.2167 39.1726 16.4363C39.0019 16.6558 38.7092 16.7899 38.2945 16.8387L37.8738 16.8753C37.1786 16.9363 36.6603 17.1375 36.3188 17.479C35.9896 17.8205 35.8249 18.3144 35.8249 18.9607V22.3633C35.8249 22.8145 35.703 23.1621 35.4591 23.406C35.2273 23.6499 34.8859 23.7719 34.4346 23.7719Z" fill="#EE5602"/>
<path id="Vector_14" d="M25.8621 23.8087C25.2036 23.8087 24.6121 23.6806 24.0877 23.4245C23.5633 23.1684 23.1547 22.8208 22.862 22.3818C22.5694 21.9428 22.423 21.4488 22.423 20.9C22.423 20.2415 22.5937 19.7232 22.9352 19.3451C23.2767 18.9549 23.8316 18.6805 24.5999 18.5219C25.3682 18.3512 26.3866 18.2658 27.6549 18.2658H28.6244V19.6927H27.6732C27.0512 19.6927 26.5451 19.7293 26.1548 19.8024C25.7768 19.8634 25.5024 19.9732 25.3316 20.1317C25.1731 20.2903 25.0938 20.5098 25.0938 20.7903C25.0938 21.1318 25.2097 21.4123 25.4414 21.6318C25.6853 21.8513 26.0329 21.9611 26.4841 21.9611C26.8378 21.9611 27.1488 21.8818 27.4171 21.7232C27.6976 21.5525 27.9171 21.3269 28.0756 21.0464C28.2342 20.7537 28.3134 20.4244 28.3134 20.0586V17.9548C28.3134 17.4182 28.1915 17.0402 27.9476 16.8206C27.7037 16.5889 27.289 16.4731 26.7036 16.4731C26.3744 16.4731 26.0146 16.5157 25.6243 16.6011C25.2463 16.6743 24.8255 16.8023 24.3621 16.9853C24.0938 17.1072 23.856 17.1377 23.6487 17.0767C23.4413 17.0036 23.2828 16.8816 23.173 16.7109C23.0633 16.5279 23.0084 16.3328 23.0084 16.1255C23.0084 15.906 23.0694 15.6986 23.1913 15.5035C23.3133 15.2962 23.5145 15.1437 23.795 15.0462C24.3682 14.8145 24.9048 14.6559 25.4048 14.5706C25.917 14.4852 26.3866 14.4425 26.8134 14.4425C27.7525 14.4425 28.5208 14.5828 29.1184 14.8633C29.7281 15.1316 30.1855 15.5523 30.4904 16.1255C30.7952 16.6865 30.9477 17.4121 30.9477 18.3024V22.3635C30.9477 22.8147 30.8379 23.1623 30.6184 23.4062C30.3989 23.6501 30.0818 23.7721 29.6672 23.7721C29.2525 23.7721 28.9293 23.6501 28.6976 23.4062C28.4781 23.1623 28.3683 22.8147 28.3683 22.3635V21.6867L28.4964 21.7964C28.4232 22.2111 28.2647 22.5708 28.0208 22.8757C27.789 23.1684 27.4903 23.4001 27.1244 23.5709C26.7585 23.7294 26.3378 23.8087 25.8621 23.8087Z" fill="#EE5602"/>
<path id="Vector_15" d="M13.3357 23.7718C12.8845 23.7718 12.5369 23.6499 12.293 23.406C12.0613 23.1621 11.9454 22.8145 11.9454 22.3633V11.9544C11.9454 11.4909 12.0613 11.1434 12.293 10.9116C12.5369 10.6677 12.8845 10.5458 13.3357 10.5458C13.7748 10.5458 14.1101 10.6677 14.3419 10.9116C14.5858 11.1434 14.7077 11.4909 14.7077 11.9544V16.3082H14.4516C14.7321 15.7106 15.1468 15.2533 15.6956 14.9362C16.2566 14.6069 16.8907 14.4423 17.5981 14.4423C18.3176 14.4423 18.9091 14.5825 19.3725 14.863C19.8359 15.1313 20.1835 15.5459 20.4152 16.1069C20.647 16.6557 20.7628 17.357 20.7628 18.2107V22.3633C20.7628 22.8145 20.6409 23.1621 20.3969 23.406C20.1652 23.6499 19.8238 23.7718 19.3725 23.7718C18.9335 23.7718 18.592 23.6499 18.3481 23.406C18.1164 23.1621 18.0005 22.8145 18.0005 22.3633V18.3387C18.0005 17.7168 17.8847 17.2716 17.6529 17.0033C17.4334 16.7228 17.092 16.5826 16.6285 16.5826C16.0431 16.5826 15.5736 16.7655 15.2199 17.1314C14.8785 17.4972 14.7077 17.9851 14.7077 18.5948V22.3633C14.7077 23.3023 14.2504 23.7718 13.3357 23.7718Z" fill="#EE5602"/>
<path id="Vector_16" d="M5.0739 23.8088C4.56169 23.8088 4.03728 23.7661 3.50067 23.6807C2.97627 23.6075 2.47015 23.4978 1.98233 23.3514C1.5067 23.2051 1.07986 23.0221 0.701798 22.8026C0.433496 22.6563 0.244465 22.4672 0.134705 22.2355C0.0249454 21.9916 -0.017739 21.7477 0.00665211 21.5038C0.0432387 21.2599 0.134705 21.0465 0.281052 20.8635C0.439594 20.6684 0.634722 20.5464 0.866437 20.4977C1.11035 20.4367 1.37865 20.4794 1.67134 20.6257C2.17136 20.9062 2.71406 21.1135 3.29945 21.2477C3.89703 21.3818 4.48851 21.4489 5.0739 21.4489C5.96417 21.4489 6.59834 21.3148 6.9764 21.0465C7.35446 20.766 7.54349 20.4184 7.54349 20.0037C7.54349 19.6501 7.40934 19.3696 7.14104 19.1623C6.87274 18.9549 6.40321 18.7781 5.73246 18.6317L3.66531 18.1927C2.49454 17.9488 1.62256 17.5342 1.04937 16.9488C0.488376 16.3512 0.207878 15.5707 0.207878 14.6072C0.207878 13.9974 0.335932 13.4425 0.592038 12.9425C0.848144 12.4425 1.20791 12.0096 1.67134 11.6437C2.13477 11.2778 2.68357 10.9973 3.31774 10.8022C3.9641 10.6071 4.67144 10.5095 5.43976 10.5095C6.12271 10.5095 6.79347 10.5949 7.45203 10.7656C8.11059 10.9242 8.68987 11.162 9.18989 11.4791C9.4338 11.6254 9.59844 11.8144 9.68381 12.0462C9.78137 12.2657 9.81186 12.4913 9.77528 12.723C9.75089 12.9425 9.65942 13.1377 9.50088 13.3084C9.35453 13.4791 9.1655 13.5889 8.93379 13.6377C8.70207 13.6865 8.42157 13.6316 8.09229 13.473C7.68984 13.2657 7.263 13.1133 6.81176 13.0157C6.36053 12.9181 5.8971 12.8694 5.42147 12.8694C4.90926 12.8694 4.47022 12.9364 4.10435 13.0706C3.75068 13.2047 3.47628 13.3938 3.28115 13.6377C3.09822 13.8816 3.00675 14.1621 3.00675 14.4792C3.00675 14.8328 3.13481 15.1194 3.39091 15.339C3.64702 15.5585 4.09216 15.7353 4.72633 15.8695L6.79347 16.3085C7.98863 16.5646 8.87891 16.9793 9.46429 17.5524C10.0497 18.1134 10.3424 18.8574 10.3424 19.7842C10.3424 20.394 10.2204 20.9489 9.9765 21.4489C9.73259 21.9367 9.37892 22.3575 8.91549 22.7112C8.45206 23.0648 7.89716 23.3392 7.2508 23.5344C6.60444 23.7173 5.8788 23.8088 5.0739 23.8088Z" fill="#EE5602"/>
</g>
</g>
</svg>
